<svg width="58" height="57" viewBox="0 0 58 57" fill="none" xmlns="http://www.w3.org/2000/svg">
<path d="M44.7082 34.4755C43.5768 37.468 41.8657 40.0699 39.6216 42.2084C37.0674 44.6424 33.723 46.5765 29.6808 47.956C29.5481 48.0013 29.4096 48.0382 29.2707 48.0654C29.0869 48.101 28.9001 48.1201 28.7147 48.1225H28.6784C28.4809 48.1225 28.2824 48.1031 28.0855 48.0654C27.9465 48.0382 27.8099 48.0013 27.678 47.9571C23.631 46.5795 20.2822 44.6466 17.7255 42.2124C15.4806 40.074 13.7697 37.4735 12.64 34.481C10.5854 29.0403 10.7024 23.0465 10.7965 18.2299L10.7981 18.1559C10.817 17.7582 10.8292 17.3404 10.836 16.879C10.8703 14.614 12.7157 12.7401 15.0371 12.6138C19.8769 12.3501 23.6211 10.8097 26.8202 7.76676L26.8482 7.74169C27.3793 7.26624 28.0486 7.03304 28.7147 7.04277C29.357 7.05092 29.9967 7.28378 30.509 7.74169L30.5362 7.76676C33.736 10.8097 37.4802 12.3501 42.3201 12.6138C44.6413 12.7401 46.4867 14.614 46.5212 16.879C46.5278 17.3435 46.5402 17.7606 46.559 18.1559L46.56 18.1873C46.6537 23.0129 46.7701 29.0187 44.7082 34.4755Z" fill="#BCBCC2"/>
<path fill-rule="evenodd" clip-rule="evenodd" d="M26.8928 19.0004C25.5799 19.0004 25.8044 17.866 26.3557 17.2793C26.9923 16.6031 28.8194 15.9884 28.8194 17.3938C28.8194 18.1343 27.6771 19.0004 26.89 19.0004H26.8928ZM25.3412 17.9275C25.3412 18.9277 25.9294 19.5314 26.8814 19.752C27.0463 19.7911 27.4327 19.7381 27.6146 19.8164C27.9329 19.9532 28.2909 20.3472 28.3137 20.7775C28.3251 21.001 28.2113 21.2665 28.1915 21.4732C28.3791 21.5235 28.7542 21.8784 28.8735 22.0376C29.5724 22.9597 29.0696 23.5772 29.0696 23.9041C29.0696 24.1332 30.0329 24.3846 30.0329 25.3876C30.0329 26.2595 29.2174 26.754 28.5069 26.9804C28.1602 27.0893 27.9613 27.1535 28.1459 27.5307C29.7031 27.5307 30.553 27.8661 30.9821 29.1959C31.0815 29.5061 31.2605 29.685 31.4566 29.4669C31.4765 29.4446 31.7466 28.2433 32.9826 28.7544C33.1646 28.83 33.2582 28.9334 33.4289 28.9752C33.6618 28.8216 33.6135 28.6176 33.5681 28.2628C33.4999 27.7374 33.6049 28.0674 33.2469 27.5056C33.1673 27.3827 33.1162 27.2933 33.0422 27.1703C31.8944 25.3011 33.0933 24.1248 33.0933 23.8231C33.0933 23.0994 32.5875 21.476 32.3262 20.8249C31.772 19.4363 31.2066 18.4108 30.4108 17.2262C29.7487 16.2399 29.908 16.1728 28.825 16.0248C28.5523 15.9884 28.3222 15.9465 28.0465 15.885C27.8106 15.832 27.5463 15.7565 27.3389 15.6755C26.0687 15.181 26.7365 15.4687 26.3216 16.0527C26.2448 16.1617 26.2023 16.198 26.117 16.3041C25.7788 16.7261 25.3384 17.2932 25.3384 17.9303L25.3412 17.9275Z" fill="#36363C"/>
<path fill-rule="evenodd" clip-rule="evenodd" d="M28.8978 30.2581C28.8978 31.6524 28.8128 32.5187 28.3693 33.8206C27.9431 35.0724 27.4089 36.2066 26.6274 37.2211C26.4995 37.3858 26.3858 37.5563 26.2437 37.7098L25.826 38.1653C25.1042 38.9702 24.8001 39.0958 24.0187 39.6853C23.9789 39.7163 23.9675 39.7218 23.9448 39.7413C24.9365 39.7413 27.028 38.769 27.8806 38.1627C28.6137 37.643 28.9292 37.3831 29.5799 36.7404C30.1796 36.1507 30.7592 35.3824 31.2141 34.6755C31.5008 34.2314 32.0779 33.1473 32.2597 32.6526C32.3137 32.5019 32.3676 32.3648 32.4274 32.2C32.5411 31.8984 32.6376 31.6217 32.7372 31.2695C32.8393 30.9175 33.1661 29.6015 33.1748 29.2272C32.1431 28.7411 31.9016 29.6798 31.7199 29.8587C31.4442 30.1297 30.927 30.1324 30.6456 29.8587C30.4751 29.6937 30.5119 29.6547 30.458 29.4256C30.2703 28.6097 29.2561 27.9082 28.3522 27.9082C28.0112 27.9082 28.4547 28.2046 28.6819 28.9032C28.8013 29.2663 28.8951 29.7887 28.8951 30.2581H28.8978Z" fill="#36363C"/>
</svg>
