<svg xmlns="http://www.w3.org/2000/svg" viewBox="0 0 37.47 41.37"><defs><style>.cls-1{fill:#d66194;fill-rule:evenodd;}</style></defs><title>Ресурс 1</title><g id="Слой_2" data-name="Слой 2"><g id="Слой_1-2" data-name="Слой 1"><path class="cls-1" d="M21.41,17.43c-.58.4-.17-.63-.59-2.12a10.19,10.19,0,0,0-1.22-2.62h0a20.72,20.72,0,0,0-5.07-5.63,24.38,24.38,0,0,0-7-4c-.42-.14-.81-.31-1.23-.42L5.08,2.36A19.29,19.29,0,0,0,.2,1.77H0C1.71.62,6.45-.07,8.63,0a23.08,23.08,0,0,1,4.58.54,25.49,25.49,0,0,1,5.23,1.74A31.51,31.51,0,0,1,22.6,4.64l.82.6c.55.39,1,.77,1.62,1.27a31.48,31.48,0,0,1,3.14,3.08c-1.21,2-2.72.67-3.24.56a1.65,1.65,0,0,0-1.85,1.23c-.11.49,0,.51.18,1A4.71,4.71,0,0,1,21.41,17.43Z"/><path class="cls-1" d="M37.43,33.79a37.79,37.79,0,0,0-.9-8.51,25.47,25.47,0,0,0-2.18-6.13c-.35-.53-3.79-1.21-4-5.81,0-.3,0-.51,0-.82,0-1.4.17-.7-.33-1.7-.33-.67-.49-1.08-1.07-1.08a7.23,7.23,0,0,0-.51.89,2.16,2.16,0,0,1-3.46.51c-.59-.16-.69.36-.5,1,.81,2.82-.26,4.38-2.94,6.17.12.87.54.76,1.26.55,1.49-.42,3.47-.49,4.49,1,1.17,1.76-.19,3.3.07,3.71.38.57,2,1.07,1.84,3.49a4.33,4.33,0,0,1-.51,1.77,11.68,11.68,0,0,1,1,1.08,2.58,2.58,0,0,1-.08,2.49c-.22.34-.95.69-1.19.95a3.73,3.73,0,0,0-.52,5h0a5.92,5.92,0,0,0,3.24,1.95c.27.09.39.1.65.21,1.39.54.58,1.81,2.19-.51a10.45,10.45,0,0,1,1-1.18c.41-.42.75-.76,1.18-1.14C37.79,36.21,37.44,36.27,37.43,33.79Zm-7,4.56C28.75,38,27,36.22,29.3,34.72c1.36-.9,4.33-.7,5.19.6C36.13,37.78,32.27,38.8,30.38,38.35Z"/></g></g></svg>