<svg width="20" height="52" viewBox="0 0 20 52" fill="none" xmlns="http://www.w3.org/2000/svg">
<path fill-rule="evenodd" clip-rule="evenodd" d="M6.10252 7.53277C3.38458 7.53277 3.84933 5.14427 4.99064 3.90884C6.30843 2.48515 10.0912 1.19089 10.0912 4.15004C10.0912 5.70904 7.72623 7.53277 6.09664 7.53277H6.10252ZM2.8904 5.27369C2.8904 7.37981 4.10819 8.65054 6.07899 9.1153C6.42021 9.19766 7.2203 9.08588 7.59681 9.25061C8.2557 9.53887 8.99696 10.3684 9.04403 11.2744C9.06756 11.745 8.83224 12.3039 8.79106 12.7392C9.17934 12.8451 9.95589 13.5923 10.203 13.9276C11.6502 15.869 10.6089 17.1691 10.6089 17.8574C10.6089 18.3398 12.6032 18.8693 12.6032 20.9813C12.6032 22.8168 10.9148 23.8581 9.44407 24.3346C8.72634 24.5641 8.31453 24.6994 8.69693 25.4936C11.9208 25.4936 13.6798 26.1995 14.5682 28.9999C14.7741 29.6529 15.1447 30.0294 15.5506 29.5705C15.5918 29.5234 16.1507 26.9937 18.7098 28.0703C19.0863 28.2292 19.2805 28.4469 19.6334 28.5351C20.1158 28.2115 20.0158 27.7821 19.9217 27.0349C19.7805 25.9289 19.9982 26.6231 19.2569 25.4406C19.0922 25.1818 18.9863 24.9935 18.8333 24.7347C16.4566 20.7989 18.9392 18.3222 18.9392 17.6868C18.9392 16.1631 17.8921 12.7451 17.3508 11.3744C16.2036 8.45052 15.0329 6.29145 13.3857 3.79706C12.0149 1.72036 12.3444 1.57917 10.103 1.26737C9.5382 1.19089 9.06168 1.10264 8.49102 0.973217C8.00273 0.86144 7.45562 0.702599 7.02616 0.531992C4.39645 -0.5093 5.77896 0.0966497 4.92004 1.3262C4.7612 1.55563 4.67295 1.63211 4.49646 1.85567C3.79639 2.744 2.88452 3.93825 2.88452 5.27958L2.8904 5.27369Z" fill="white" fill-opacity="0.2"/>
<path fill-rule="evenodd" clip-rule="evenodd" d="M10.2541 31.2352C10.2541 34.1708 10.0776 35.9946 9.15984 38.736C8.27739 41.3716 7.17138 43.7601 5.55356 45.8957C5.28882 46.2428 5.0535 46.6016 4.75935 46.9252L3.89455 47.8841C2.40027 49.5784 1.77078 49.8432 0.152958 51.0845C0.0705961 51.1492 0.047064 51.1609 0 51.2021C2.05317 51.2021 6.38306 49.1548 8.14796 47.8782C9.66578 46.784 10.3188 46.2369 11.666 44.8838C12.9073 43.6425 14.1074 42.0246 15.0487 40.5362C15.6429 39.6008 16.8372 37.3182 17.2137 36.2769C17.3255 35.9593 17.4372 35.671 17.5608 35.3239C17.7961 34.6885 17.9961 34.1061 18.202 33.3649C18.4138 32.6236 19.0904 29.8527 19.108 29.0644C16.9725 28.0407 16.4724 30.0174 16.0959 30.3939C15.5253 30.9646 14.4545 30.9705 13.8721 30.3939C13.5191 30.0468 13.5956 29.9645 13.4838 29.4821C13.0956 27.7642 10.9953 26.2876 9.12454 26.2876C8.41858 26.2876 9.33633 26.9112 9.80697 28.3819C10.0541 29.1467 10.2482 30.2469 10.2482 31.2352H10.2541Z" fill="white" fill-opacity="0.2"/>
</svg>
