<svg width="14" height="16" viewBox="0 0 14 16" fill="none" xmlns="http://www.w3.org/2000/svg">
<path fill-rule="evenodd" clip-rule="evenodd" d="M9.07821 2.01637C9.51519 2.85902 10.3206 4.17797 11.6756 5.67626C12.7687 6.88477 13.3956 8.31248 13.3956 9.59328C13.3956 13.1259 10.5245 16 6.99563 16C5.29067 16 3.68827 15.341 2.48363 14.1443C1.27892 12.9475 0.608459 11.3486 0.595784 9.64192C0.586306 8.36416 0.951571 7.12763 1.65204 6.06616C1.79549 5.84882 2.58343 4.76101 2.61688 4.71482L2.93929 4.26978L3.87655 5.208C4.04789 5.37954 4.2921 5.45341 4.5295 5.40594C4.8681 5.33814 5.1125 5.03832 5.1106 4.69302C5.10731 4.09968 5.18551 3.228 5.57654 2.4451C6.35552 0.885568 7.74569 0.250912 7.80451 0.224672L8.30766 0L8.44863 0.533184C8.44975 0.537696 8.60479 1.10366 9.07821 2.01637ZM4.39124 10.295C4.39124 11.2398 5.25218 12 6.31641 12C7.90073 12 9.18626 10.8326 9.18626 9.3936C9.18626 8.63888 9.06671 7.90046 8.83351 7.20002C8.22359 7.9439 7.12954 8.40544 6.07127 8.60096C5.01902 8.79632 4.39124 9.41536 4.39124 10.295Z" fill="white"/>
</svg>
