<svg width="20" height="20" viewBox="0 0 20 20" fill="none" xmlns="http://www.w3.org/2000/svg">
<path d="M3.25002 10C3.25002 8.57501 4.40835 7.41668 5.83335 7.41668H9.16669V5.83334H5.83335C3.53335 5.83334 1.66669 7.70001 1.66669 10C1.66669 12.3 3.53335 14.1667 5.83335 14.1667H9.16669V12.5833H5.83335C4.40835 12.5833 3.25002 11.425 3.25002 10ZM6.66669 10.8333H13.3334V9.16668H6.66669V10.8333ZM14.1667 5.83334H10.8334V7.41668H14.1667C15.5917 7.41668 16.75 8.57501 16.75 10C16.75 11.425 15.5917 12.5833 14.1667 12.5833H10.8334V14.1667H14.1667C16.4667 14.1667 18.3334 12.3 18.3334 10C18.3334 7.70001 16.4667 5.83334 14.1667 5.83334Z" fill="white" fill-opacity="0.2"/>
</svg>
