<svg width="8" height="10" viewBox="0 0 8 10" fill="none" xmlns="http://www.w3.org/2000/svg">
<path fill-rule="evenodd" clip-rule="evenodd" d="M4.00002 0.5C2.67454 0.5 1.60002 1.57452 1.60002 2.9V3.8H0.700024C0.534339 3.8 0.400024 3.93431 0.400024 4.1V9.2C0.400024 9.36569 0.534339 9.5 0.700024 9.5H7.30002C7.46571 9.5 7.60002 9.36569 7.60002 9.2V4.1C7.60002 3.93431 7.46571 3.8 7.30002 3.8H6.40002V2.9C6.40002 1.57452 5.32551 0.5 4.00002 0.5ZM5.50002 2.9V3.8H2.50002V2.9C2.50002 2.07157 3.1716 1.4 4.00002 1.4C4.82845 1.4 5.50002 2.07157 5.50002 2.9ZM4.75017 6.05C4.75017 6.28102 4.64572 6.48764 4.48147 6.62522L4.82251 7.98937C4.86196 8.14715 4.74262 8.3 4.57997 8.3H3.42036C3.25772 8.3 3.13838 8.14715 3.17783 7.98937L3.51887 6.62522C3.35462 6.48764 3.25017 6.28102 3.25017 6.05C3.25017 5.63579 3.58596 5.3 4.00017 5.3C4.41438 5.3 4.75017 5.63579 4.75017 6.05Z" fill="white" fill-opacity="0.5"/>
</svg>
