<svg width="47" height="26" viewBox="0 0 47 26" fill="none" xmlns="http://www.w3.org/2000/svg">
<path d="M42.6263 7.64925C42.4985 9.43569 40.8196 11.3771 38.5427 11.2218C36.7562 11.1 34.9259 9.36964 35.0977 7.13825C35.2254 5.47941 36.7753 3.53793 39.0537 3.69326C41.3306 3.84848 42.754 5.86281 42.6263 7.64925ZM38.67 14.9223L31.9066 19.8984C31.9066 20.2812 31.8233 20.7397 31.7789 20.9192C30.8641 24.6163 28.2057 25.5126 26.5468 25.5125C23.7395 25.3847 21.8256 23.8533 21.0601 21.1763L8.72688 16.0783C7.70228 16.7348 6.41224 17.0003 5.09332 16.9103C2.58836 16.7396 -0.0662754 14.3793 0.31269 10.7896C0.58816 8.1802 3.07579 5.93849 5.83442 6.12656C8.59304 6.31462 10.4225 8.18973 10.8465 10.3136L23.3574 15.4344C24.3783 14.7964 25.0163 14.5413 26.5476 14.5414L31.4023 7.52077C31.4041 7.41511 31.3883 6.97044 31.4024 6.76375C31.6755 2.7584 35.2238 -0.261769 39.3271 0.0179651C43.4299 0.297665 46.4547 3.69383 46.3268 7.77714C46.1988 11.988 42.6257 15.0503 38.67 14.9223ZM9.39304 9.70676C8.78208 8.43964 7.63682 7.48654 5.83442 7.36366C4.12437 7.24709 1.87463 8.48366 1.56365 10.7896C1.26086 13.0348 2.73327 15.187 5.09332 15.57C5.50623 15.637 6.34393 15.6594 7.27346 15.4108L4.19942 14.1404C2.9708 13.5149 2.61095 12.0535 3.30588 10.3136C4.2442 8.85083 5.69892 7.947 8.00358 9.14307L9.39304 9.70676ZM33.9493 7.03287C33.7372 10.144 36.0586 12.2096 38.415 12.3703C40.7118 12.5268 43.6902 10.8881 43.9023 7.77695C44.0301 5.35249 42.3678 2.63446 39.1814 2.41723C35.8637 2.28937 33.9494 4.96889 33.9493 7.03287ZM30.5028 20.5391C30.8519 17.9921 28.6379 15.8174 26.5475 15.8174C26.2068 15.7942 25.399 15.8173 24.8886 16.0725L27.8811 17.2646C29.3826 18.1859 29.7372 20.1562 28.901 21.5804C27.963 23.0456 25.9854 23.4835 24.4848 22.5637L22.5913 21.8145C23.3568 23.3458 25.2125 24.2393 26.5468 24.2393C27.8811 24.2393 30.1122 23.3885 30.5028 20.5391Z" fill="#BCBCC2"/>
</svg>
