<svg width="34" height="34" viewBox="0 0 34 34" fill="none" xmlns="http://www.w3.org/2000/svg">
<path d="M20.4002 28.0499H13.6002L14.5092 30.0951C14.6456 30.4021 14.95 30.5999 15.2859 30.5999H18.7145C19.0504 30.5999 19.3548 30.4021 19.4912 30.0951L20.4002 28.0499Z" fill="#BCBCC2"/>
<path d="M25.4107 22.3549C25.3319 22.2753 25.2877 22.1678 25.2877 22.0559V15.2563C25.2877 10.9741 23.0224 7.38924 19.0721 6.44072V5.49221C19.0721 4.33447 18.1466 3.3999 17.0002 3.3999C15.8538 3.3999 14.9283 4.33447 14.9283 5.49221V6.44072C10.9641 7.38924 8.7127 10.9601 8.7127 15.2563V22.0559C8.7127 22.1678 8.66849 22.2753 8.58969 22.3549L6.0732 24.8962C5.9944 24.9758 5.9502 25.0832 5.9502 25.1952V25.9903C5.9502 26.225 6.14047 26.4153 6.3752 26.4153H27.6252C27.8599 26.4153 28.0502 26.225 28.0502 25.9903V25.1952C28.0502 25.0832 28.006 24.9758 27.9272 24.8962L25.4107 22.3549Z" fill="#BCBCC2"/>
</svg>
