<svg width="20" height="20" viewBox="0 0 20 20" fill="none" xmlns="http://www.w3.org/2000/svg">
<path fill-rule="evenodd" clip-rule="evenodd" d="M11.0614 12.1219L15.7936 16.8535C15.9889 17.0488 16.3055 17.0487 16.5007 16.8535L16.8543 16.4999C17.0495 16.3047 17.0495 15.9881 16.8542 15.7928L12.1221 11.0613L11.0614 12.1219Z" fill="#BCBCC2"/>
<path fill-rule="evenodd" clip-rule="evenodd" d="M16.5304 3.82326C16.7256 4.01852 16.7256 4.33511 16.5304 4.53037L4.20711 16.8535C4.01184 17.0488 3.69526 17.0488 3.5 16.8535L3.14645 16.4999C2.95118 16.3047 2.95118 15.9881 3.14645 15.7928L15.4697 3.46971C15.665 3.27445 15.9815 3.27445 16.1768 3.46971L16.5304 3.82326Z" fill="#BCBCC2"/>
<path fill-rule="evenodd" clip-rule="evenodd" d="M8.93942 9.99994L3.46985 4.53037C3.27459 4.33511 3.27459 4.01852 3.46985 3.82326L3.8234 3.46971C4.01867 3.27445 4.33525 3.27445 4.53051 3.46971L10.0001 8.93928L9.46975 9.46961L8.93942 9.99994Z" fill="#BCBCC2"/>
</svg>
