<svg width="17" height="18" viewBox="0 0 17 18" fill="none" xmlns="http://www.w3.org/2000/svg">
<path d="M14.025 12.4003C14.2597 12.4003 14.45 12.21 14.45 11.9753V2.70029C14.45 2.42415 14.2261 2.20029 13.95 2.20029H6.44995C6.17381 2.20029 5.94995 2.42415 5.94995 2.70029V11.9753C5.94995 12.21 6.14023 12.4003 6.37495 12.4003H14.025Z" fill="#BCBCC2"/>
<path d="M11.05 15.5081C11.05 15.6695 10.9191 15.8003 10.7578 15.8003H2.84214C2.68077 15.8003 2.54995 15.6695 2.54995 15.5081V6.10029C2.54995 5.82415 2.77381 5.60029 3.04995 5.60029H4.67493L4.67492 13.2503C4.67492 13.485 4.8652 13.6753 5.09992 13.6753H11.05V15.5081Z" fill="#BCBCC2"/>
</svg>
