<svg width="36" height="36" viewBox="0 0 36 36" fill="none" xmlns="http://www.w3.org/2000/svg">
<path fill-rule="evenodd" clip-rule="evenodd" d="M18.0001 29.7001C24.4618 29.7001 29.7001 24.4618 29.7001 18.0001C29.7001 11.5384 24.4618 6.3001 18.0001 6.3001C11.5384 6.3001 6.3001 11.5384 6.3001 18.0001C6.3001 24.4618 11.5384 29.7001 18.0001 29.7001ZM18.0001 32.4001C25.953 32.4001 32.4001 25.953 32.4001 18.0001C32.4001 10.0472 25.953 3.6001 18.0001 3.6001C10.0472 3.6001 3.6001 10.0472 3.6001 18.0001C3.6001 25.953 10.0472 32.4001 18.0001 32.4001Z" fill="#BCBCC2"/>
<path d="M30.2415 24.5936L32.3088 32.3087L24.5937 30.2415L30.2415 24.5936Z" fill="#BCBCC2"/>
<path d="M18.8519 21.1655V20.1069C18.8519 19.0119 20.2038 18.1541 21.2038 17.2233C21.926 16.5662 22.5001 15.5989 22.5001 14.4491C22.5001 13.3358 22.0927 12.405 21.2594 11.6567C20.426 10.9084 19.3705 10.5434 18.0742 10.5434C16.2408 10.5434 14.7223 11.2917 13.5001 12.77L15.1112 14.5586C16.0371 13.5001 16.9631 12.9708 17.8705 12.9708C18.926 12.9708 19.7223 13.6461 19.7223 14.6134C19.7223 15.7632 18.4816 16.548 17.5186 17.424C16.8705 18.0081 16.3334 18.9206 16.3334 19.9609V21.1655H18.8519ZM16.2001 24.3001C16.2001 25.1578 16.9038 25.7784 17.7371 25.7784C18.5705 25.7784 19.2371 25.1578 19.2371 24.3001C19.2371 23.4788 18.5705 22.8217 17.7371 22.8217C16.8668 22.8217 16.2001 23.4788 16.2001 24.3001Z" fill="#BCBCC2"/>
</svg>
