<svg width="20" height="20" viewBox="0 0 20 20" fill="none" xmlns="http://www.w3.org/2000/svg">
<path d="M12.7002 6.03046L12.4502 5.59748C12.3121 5.3583 12.3941 5.05245 12.6333 4.91441L14.6493 3.75106L13.4843 1.73351C13.3462 1.49436 13.4282 1.18855 13.6673 1.05047L14.1003 0.800469C14.3395 0.662404 14.6453 0.744328 14.7833 0.983457L16.4484 3.86697C16.5865 4.10615 16.5045 4.41199 16.2653 4.55005L13.3831 6.21351C13.144 6.35153 12.8382 6.26958 12.7002 6.03046Z" fill="#81818A"/>
<path d="M7.30904 13.9795L7.55902 14.4125C7.69711 14.6517 7.61513 14.9576 7.37591 15.0956L5.35989 16.2589L6.52488 18.2765C6.66298 18.5156 6.58104 18.8215 6.34189 18.9595L5.90887 19.2095C5.66974 19.3476 5.36396 19.2657 5.22588 19.0265L3.56086 16.143C3.42275 15.9039 3.50472 15.598 3.74392 15.46L6.62609 13.7965C6.86523 13.6585 7.17098 13.7404 7.30904 13.9795Z" fill="#81818A"/>
<path d="M16.2798 11.6827C16.5053 10.8412 16.5548 9.99564 16.4517 9.1838C16.4343 9.04683 16.5258 8.91808 16.662 8.8954L17.6484 8.7311C17.7846 8.70842 17.9138 8.80039 17.9322 8.93723C18.0692 9.95617 18.0108 11.018 17.7287 12.0709C16.5851 16.3386 12.1984 18.8713 7.93071 17.7278L7.39184 16.8069L8.31894 16.2789C11.7865 17.208 15.3507 15.1502 16.2798 11.6827Z" fill="#81818A"/>
<path d="M3.72279 8.3179C4.65191 4.85037 8.2161 2.79259 11.6836 3.72171L12.5976 3.19337L12.0719 2.27282C7.80413 1.12929 3.41744 3.66195 2.2739 7.92967C1.98889 8.99334 1.93222 10.0661 2.07462 11.0946C2.09355 11.2313 2.22312 11.3228 2.35922 11.2996L3.34498 11.1314C3.48108 11.1081 3.57208 10.979 3.55415 10.8421C3.44676 10.0225 3.49497 9.16813 3.72279 8.3179Z" fill="#81818A"/>
</svg>
