<svg width="20" height="20" viewBox="0 0 20 20" fill="none" xmlns="http://www.w3.org/2000/svg">
<path d="M10 7.71429C8.7075 7.71429 7.65001 8.74286 7.65001 10C7.65001 11.2571 8.7075 12.2857 10 12.2857C11.2925 12.2857 12.35 11.2571 12.35 10C12.35 8.74286 11.2925 7.71429 10 7.71429ZM16.1687 10C16.1687 10.2629 16.1452 10.5257 16.11 10.7771L17.849 12.1029C18.0017 12.2286 18.0487 12.4457 17.943 12.6171L16.298 15.3829C16.1922 15.5543 15.9807 15.6229 15.7927 15.5543L13.7482 14.7543C13.3252 15.0743 12.8552 15.3371 12.3617 15.5429L12.0562 17.6571C12.021 17.8514 11.8447 18 11.645 18H8.35501C8.15526 18 7.97901 17.8514 7.94376 17.6686L7.63826 15.5543C7.13301 15.3486 6.67476 15.0857 6.25177 14.7657L4.20727 15.5657C4.01927 15.6343 3.80778 15.5657 3.70203 15.3943L2.05703 12.6286C1.95128 12.4571 1.99828 12.24 2.15103 12.1143L3.89003 10.7886C3.85478 10.5257 3.83128 10.2629 3.83128 10C3.83128 9.73714 3.85478 9.47429 3.89003 9.22286L2.15103 7.89714C1.99828 7.77143 1.95128 7.55429 2.05703 7.38286L3.70203 4.61714C3.80778 4.44571 4.01927 4.37714 4.20727 4.44571L6.25177 5.24571C6.67476 4.92571 7.14476 4.66286 7.63826 4.45714L7.94376 2.34286C7.97901 2.14857 8.15526 2 8.35501 2H11.645C11.8447 2 12.021 2.14857 12.0562 2.33143L12.3617 4.44571C12.867 4.65143 13.3252 4.91429 13.7482 5.23429L15.7927 4.43429C15.9807 4.36571 16.1922 4.43429 16.298 4.60571L17.943 7.37143C18.0487 7.54286 18.0017 7.76 17.849 7.88571L16.11 9.21143C16.1452 9.47429 16.1687 9.73714 16.1687 10Z" fill="#BCBCC2"/>
</svg>
